<svg width="400" height="129" viewBox="0 0 400 129" fill="none" xmlns="http://www.w3.org/2000/svg">
<g clip-path="url(#clip0_14_129)">
<rect width="400" height="129" rx="17" fill="#565656"/>
<path d="M151.614 51.2273V45.125H152.739C153.125 44.7727 153.489 44.2756 153.83 43.6335C154.176 42.9858 154.469 42.1222 154.707 41.0426C154.952 39.9574 155.114 38.5795 155.193 36.9091L155.568 29.5455H165.932V45.125H167.943V51.1932H165.932V47H153.625V51.2273H151.614ZM155.261 45.125H163.92V31.4205H157.477L157.205 36.9091C157.136 38.1818 157.017 39.3352 156.847 40.3693C156.676 41.3977 156.457 42.3097 156.19 43.1051C155.923 43.8949 155.614 44.5682 155.261 45.125ZM185.864 38.2727C185.864 40.1136 185.532 41.7045 184.867 43.0455C184.202 44.3864 183.29 45.4205 182.131 46.1477C180.972 46.875 179.648 47.2386 178.16 47.2386C176.671 47.2386 175.347 46.875 174.188 46.1477C173.029 45.4205 172.117 44.3864 171.452 43.0455C170.788 41.7045 170.455 40.1136 170.455 38.2727C170.455 36.4318 170.788 34.8409 171.452 33.5C172.117 32.1591 173.029 31.125 174.188 30.3977C175.347 29.6705 176.671 29.3068 178.16 29.3068C179.648 29.3068 180.972 29.6705 182.131 30.3977C183.29 31.125 184.202 32.1591 184.867 33.5C185.532 34.8409 185.864 36.4318 185.864 38.2727ZM183.819 38.2727C183.819 36.7614 183.566 35.4858 183.06 34.446C182.56 33.4062 181.881 32.6193 181.023 32.0852C180.171 31.5511 179.217 31.2841 178.16 31.2841C177.103 31.2841 176.146 31.5511 175.288 32.0852C174.435 32.6193 173.756 33.4062 173.251 34.446C172.751 35.4858 172.501 36.7614 172.501 38.2727C172.501 39.7841 172.751 41.0597 173.251 42.0994C173.756 43.1392 174.435 43.9261 175.288 44.4602C176.146 44.9943 177.103 45.2614 178.16 45.2614C179.217 45.2614 180.171 44.9943 181.023 44.4602C181.881 43.9261 182.56 43.1392 183.06 42.0994C183.566 41.0597 183.819 39.7841 183.819 38.2727ZM203.464 35H201.35C201.225 34.392 201.006 33.858 200.694 33.3977C200.387 32.9375 200.012 32.5511 199.569 32.2386C199.131 31.9205 198.646 31.6818 198.112 31.5227C197.577 31.3636 197.021 31.2841 196.441 31.2841C195.384 31.2841 194.427 31.5511 193.569 32.0852C192.717 32.6193 192.038 33.4062 191.532 34.446C191.032 35.4858 190.782 36.7614 190.782 38.2727C190.782 39.7841 191.032 41.0597 191.532 42.0994C192.038 43.1392 192.717 43.9261 193.569 44.4602C194.427 44.9943 195.384 45.2614 196.441 45.2614C197.021 45.2614 197.577 45.1818 198.112 45.0227C198.646 44.8636 199.131 44.6278 199.569 44.3153C200.012 43.9972 200.387 43.608 200.694 43.1477C201.006 42.6818 201.225 42.1477 201.35 41.5455H203.464C203.305 42.4375 203.015 43.2358 202.594 43.9403C202.174 44.6449 201.651 45.2443 201.026 45.7386C200.401 46.2273 199.7 46.5994 198.921 46.8551C198.148 47.1108 197.322 47.2386 196.441 47.2386C194.952 47.2386 193.629 46.875 192.469 46.1477C191.31 45.4205 190.398 44.3864 189.734 43.0455C189.069 41.7045 188.737 40.1136 188.737 38.2727C188.737 36.4318 189.069 34.8409 189.734 33.5C190.398 32.1591 191.31 31.125 192.469 30.3977C193.629 29.6705 194.952 29.3068 196.441 29.3068C197.322 29.3068 198.148 29.4347 198.921 29.6903C199.7 29.946 200.401 30.321 201.026 30.8153C201.651 31.304 202.174 31.9006 202.594 32.6051C203.015 33.304 203.305 34.1023 203.464 35ZM205.925 31.4205V29.5455H219.016V31.4205H213.527V47H211.413V31.4205H205.925ZM223.198 47.2386V45.2614H224.289C224.71 45.2614 225.062 45.179 225.346 45.0142C225.636 44.8494 225.874 44.6364 226.062 44.375C226.255 44.1136 226.414 43.8409 226.539 43.5568L226.812 42.9091L220.778 29.5455H223.062L227.869 40.3864L232.266 29.5455H234.516L228.482 44.1705C228.244 44.7159 227.971 45.2216 227.664 45.6875C227.363 46.1534 226.951 46.5284 226.428 46.8125C225.911 47.0966 225.21 47.2386 224.323 47.2386H223.198ZM250.311 29.5455V47H248.197V31.4205H239.402V47H237.288V29.5455H250.311ZM254.575 47V29.5455H256.688V37.3182H265.995V29.5455H268.109V47H265.995V39.1932H256.688V47H254.575ZM287.067 38.2727C287.067 40.1136 286.735 41.7045 286.07 43.0455C285.406 44.3864 284.494 45.4205 283.335 46.1477C282.175 46.875 280.852 47.2386 279.363 47.2386C277.874 47.2386 276.55 46.875 275.391 46.1477C274.232 45.4205 273.32 44.3864 272.656 43.0455C271.991 41.7045 271.658 40.1136 271.658 38.2727C271.658 36.4318 271.991 34.8409 272.656 33.5C273.32 32.1591 274.232 31.125 275.391 30.3977C276.55 29.6705 277.874 29.3068 279.363 29.3068C280.852 29.3068 282.175 29.6705 283.335 30.3977C284.494 31.125 285.406 32.1591 286.07 33.5C286.735 34.8409 287.067 36.4318 287.067 38.2727ZM285.022 38.2727C285.022 36.7614 284.769 35.4858 284.263 34.446C283.763 33.4062 283.085 32.6193 282.227 32.0852C281.374 31.5511 280.42 31.2841 279.363 31.2841C278.306 31.2841 277.349 31.5511 276.491 32.0852C275.638 32.6193 274.96 33.4062 274.454 34.446C273.954 35.4858 273.704 36.7614 273.704 38.2727C273.704 39.7841 273.954 41.0597 274.454 42.0994C274.96 43.1392 275.638 43.9261 276.491 44.4602C277.349 44.9943 278.306 45.2614 279.363 45.2614C280.42 45.2614 281.374 44.9943 282.227 44.4602C283.085 43.9261 283.763 43.1392 284.263 42.0994C284.769 41.0597 285.022 39.7841 285.022 38.2727ZM297.371 47V29.5455H303.474C304.69 29.5455 305.692 29.7557 306.482 30.1761C307.272 30.5909 307.86 31.1506 308.246 31.8551C308.633 32.554 308.826 33.3295 308.826 34.1818C308.826 34.9318 308.692 35.5511 308.425 36.0398C308.164 36.5284 307.817 36.9148 307.386 37.1989C306.96 37.483 306.496 37.6932 305.996 37.8295V38C306.531 38.0341 307.067 38.2216 307.607 38.5625C308.147 38.9034 308.599 39.392 308.962 40.0284C309.326 40.6648 309.508 41.4432 309.508 42.3636C309.508 43.2386 309.309 44.0256 308.911 44.7244C308.513 45.4233 307.886 45.9773 307.028 46.3864C306.17 46.7955 305.053 47 303.678 47H297.371ZM299.485 45.125H303.678C305.059 45.125 306.039 44.858 306.619 44.3239C307.204 43.7841 307.496 43.1307 307.496 42.3636C307.496 41.7727 307.346 41.2273 307.045 40.7273C306.744 40.2216 306.315 39.8182 305.758 39.517C305.201 39.2102 304.542 39.0568 303.781 39.0568H299.485V45.125ZM299.485 37.2159H303.406C304.042 37.2159 304.616 37.0909 305.127 36.8409C305.644 36.5909 306.053 36.2386 306.354 35.7841C306.661 35.3295 306.815 34.7955 306.815 34.1818C306.815 33.4148 306.548 32.7642 306.013 32.2301C305.479 31.6903 304.633 31.4205 303.474 31.4205H299.485V37.2159ZM157.605 95H151.98L162.222 65.9091H168.727L178.983 95H173.358L165.588 71.875H165.361L157.605 95ZM157.79 83.5938H173.131V87.8267H157.79V83.5938ZM182.587 103.182V73.1818H187.644V76.7898H187.942C188.208 76.2595 188.582 75.696 189.065 75.0994C189.548 74.4934 190.201 73.9773 191.025 73.5511C191.849 73.1155 192.9 72.8977 194.178 72.8977C195.864 72.8977 197.384 73.3286 198.738 74.1903C200.102 75.0426 201.181 76.3068 201.977 77.983C202.781 79.6496 203.184 81.6951 203.184 84.1193C203.184 86.5152 202.791 88.5511 202.005 90.2273C201.219 91.9034 200.149 93.1818 198.795 94.0625C197.441 94.9432 195.906 95.3835 194.192 95.3835C192.942 95.3835 191.906 95.1752 191.082 94.7585C190.258 94.3419 189.595 93.84 189.093 93.2528C188.601 92.6562 188.217 92.0928 187.942 91.5625H187.729V103.182H182.587ZM187.63 84.0909C187.63 85.5019 187.829 86.7377 188.227 87.7983C188.634 88.8589 189.216 89.6875 189.974 90.2841C190.741 90.8712 191.669 91.1648 192.758 91.1648C193.894 91.1648 194.846 90.8617 195.613 90.2557C196.38 89.6402 196.958 88.8021 197.346 87.7415C197.744 86.6714 197.942 85.4545 197.942 84.0909C197.942 82.7367 197.748 81.5341 197.36 80.483C196.972 79.4318 196.394 78.608 195.627 78.0114C194.86 77.4148 193.904 77.1165 192.758 77.1165C191.659 77.1165 190.727 77.4053 189.96 77.983C189.192 78.5606 188.61 79.3703 188.212 80.4119C187.824 81.4536 187.63 82.6799 187.63 84.0909ZM207.587 103.182V73.1818H212.644V76.7898H212.942C213.208 76.2595 213.582 75.696 214.065 75.0994C214.548 74.4934 215.201 73.9773 216.025 73.5511C216.849 73.1155 217.9 72.8977 219.178 72.8977C220.864 72.8977 222.384 73.3286 223.738 74.1903C225.102 75.0426 226.181 76.3068 226.977 77.983C227.781 79.6496 228.184 81.6951 228.184 84.1193C228.184 86.5152 227.791 88.5511 227.005 90.2273C226.219 91.9034 225.149 93.1818 223.795 94.0625C222.441 94.9432 220.906 95.3835 219.192 95.3835C217.942 95.3835 216.906 95.1752 216.082 94.7585C215.258 94.3419 214.595 93.84 214.093 93.2528C213.601 92.6562 213.217 92.0928 212.942 91.5625H212.729V103.182H207.587ZM212.63 84.0909C212.63 85.5019 212.829 86.7377 213.227 87.7983C213.634 88.8589 214.216 89.6875 214.974 90.2841C215.741 90.8712 216.669 91.1648 217.758 91.1648C218.894 91.1648 219.846 90.8617 220.613 90.2557C221.38 89.6402 221.958 88.8021 222.346 87.7415C222.744 86.6714 222.942 85.4545 222.942 84.0909C222.942 82.7367 222.748 81.5341 222.36 80.483C221.972 79.4318 221.394 78.608 220.627 78.0114C219.86 77.4148 218.904 77.1165 217.758 77.1165C216.659 77.1165 215.727 77.4053 214.96 77.983C214.192 78.5606 213.61 79.3703 213.212 80.4119C212.824 81.4536 212.63 82.6799 212.63 84.0909ZM258.546 73.9062C258.414 72.6657 257.855 71.6998 256.87 71.0085C255.895 70.3172 254.626 69.9716 253.063 69.9716C251.965 69.9716 251.022 70.1373 250.237 70.4688C249.451 70.8002 248.849 71.25 248.433 71.8182C248.016 72.3864 247.803 73.035 247.793 73.7642C247.793 74.3703 247.931 74.8958 248.205 75.3409C248.489 75.786 248.873 76.1648 249.356 76.4773C249.839 76.7803 250.374 77.036 250.961 77.2443C251.548 77.4527 252.14 77.6278 252.737 77.7699L255.464 78.4517C256.562 78.7074 257.618 79.053 258.631 79.4886C259.654 79.9242 260.568 80.4735 261.373 81.1364C262.187 81.7992 262.831 82.5994 263.305 83.5369C263.778 84.4744 264.015 85.5729 264.015 86.8324C264.015 88.5369 263.579 90.0379 262.708 91.3352C261.837 92.6231 260.577 93.6316 258.93 94.3608C257.291 95.0805 255.308 95.4403 252.978 95.4403C250.715 95.4403 248.75 95.09 247.083 94.3892C245.426 93.6884 244.129 92.6657 243.191 91.321C242.263 89.9763 241.761 88.3381 241.685 86.4062H246.87C246.946 87.4195 247.258 88.2623 247.808 88.9347C248.357 89.607 249.072 90.1089 249.952 90.4403C250.843 90.7718 251.837 90.9375 252.935 90.9375C254.081 90.9375 255.085 90.767 255.947 90.4261C256.818 90.0758 257.5 89.5928 257.992 88.9773C258.485 88.3523 258.736 87.6231 258.745 86.7898C258.736 86.0322 258.513 85.4072 258.077 84.9148C257.642 84.4129 257.031 83.9962 256.245 83.6648C255.469 83.3239 254.559 83.0208 253.518 82.7557L250.208 81.9034C247.812 81.2879 245.918 80.3551 244.526 79.1051C243.144 77.8456 242.452 76.1742 242.452 74.0909C242.452 72.3769 242.916 70.8759 243.844 69.5881C244.782 68.3002 246.056 67.3011 247.665 66.5909C249.275 65.8712 251.098 65.5114 253.134 65.5114C255.199 65.5114 257.007 65.8712 258.56 66.5909C260.123 67.3011 261.349 68.2907 262.239 69.5597C263.129 70.8191 263.589 72.268 263.617 73.9062H258.546ZM279.381 73.1818V77.1591H266.838V73.1818H279.381ZM269.935 67.9545H275.077V88.4375C275.077 89.1288 275.181 89.6591 275.389 90.0284C275.607 90.3883 275.891 90.6345 276.241 90.767C276.592 90.8996 276.98 90.9659 277.406 90.9659C277.728 90.9659 278.022 90.9422 278.287 90.8949C278.562 90.8475 278.77 90.8049 278.912 90.767L279.778 94.7869C279.504 94.8816 279.111 94.9858 278.599 95.0994C278.098 95.2131 277.482 95.2794 276.753 95.2983C275.465 95.3362 274.305 95.142 273.273 94.7159C272.241 94.2803 271.421 93.608 270.815 92.6989C270.219 91.7898 269.925 90.6534 269.935 89.2898V67.9545ZM292.964 95.4261C290.833 95.4261 288.987 94.9574 287.424 94.0199C285.862 93.0824 284.649 91.7708 283.788 90.0852C282.935 88.3996 282.509 86.4299 282.509 84.1761C282.509 81.9223 282.935 79.9479 283.788 78.2528C284.649 76.5578 285.862 75.2415 287.424 74.304C288.987 73.3665 290.833 72.8977 292.964 72.8977C295.094 72.8977 296.941 73.3665 298.504 74.304C300.066 75.2415 301.273 76.5578 302.126 78.2528C302.987 79.9479 303.418 81.9223 303.418 84.1761C303.418 86.4299 302.987 88.3996 302.126 90.0852C301.273 91.7708 300.066 93.0824 298.504 94.0199C296.941 94.9574 295.094 95.4261 292.964 95.4261ZM292.992 91.3068C294.147 91.3068 295.113 90.9896 295.89 90.3551C296.666 89.7112 297.244 88.8494 297.623 87.7699C298.011 86.6903 298.205 85.4877 298.205 84.1619C298.205 82.8267 298.011 81.6193 297.623 80.5398C297.244 79.4508 296.666 78.5843 295.89 77.9403C295.113 77.2964 294.147 76.9744 292.992 76.9744C291.808 76.9744 290.824 77.2964 290.038 77.9403C289.261 78.5843 288.679 79.4508 288.29 80.5398C287.912 81.6193 287.722 82.8267 287.722 84.1619C287.722 85.4877 287.912 86.6903 288.29 87.7699C288.679 88.8494 289.261 89.7112 290.038 90.3551C290.824 90.9896 291.808 91.3068 292.992 91.3068ZM307.783 95V73.1818H312.768V76.8182H312.996C313.393 75.5587 314.075 74.5881 315.041 73.9062C316.017 73.215 317.129 72.8693 318.379 72.8693C318.663 72.8693 318.981 72.8835 319.331 72.9119C319.691 72.9309 319.989 72.964 320.226 73.0114V77.7415C320.008 77.6657 319.662 77.5994 319.189 77.5426C318.725 77.4763 318.275 77.4432 317.839 77.4432C316.902 77.4432 316.059 77.6468 315.311 78.054C314.572 78.4517 313.99 79.0057 313.564 79.7159C313.138 80.4261 312.925 81.2453 312.925 82.1733V95H307.783ZM332.403 95.4261C330.215 95.4261 328.326 94.9716 326.735 94.0625C325.154 93.1439 323.937 91.8466 323.085 90.1705C322.232 88.4848 321.806 86.5009 321.806 84.2188C321.806 81.9744 322.232 80.0047 323.085 78.3097C323.946 76.6051 325.149 75.2794 326.692 74.3324C328.236 73.3759 330.049 72.8977 332.133 72.8977C333.478 72.8977 334.746 73.1155 335.94 73.5511C337.142 73.9773 338.203 74.6402 339.121 75.5398C340.049 76.4394 340.779 77.5852 341.309 78.9773C341.839 80.3598 342.104 82.0076 342.104 83.9205V85.4972H324.221V82.0312H337.175C337.166 81.0464 336.953 80.1705 336.536 79.4034C336.12 78.6269 335.537 78.0161 334.789 77.571C334.05 77.1259 333.189 76.9034 332.204 76.9034C331.153 76.9034 330.229 77.1591 329.434 77.6705C328.638 78.1723 328.018 78.8352 327.573 79.6591C327.138 80.4735 326.915 81.3684 326.906 82.3438V85.3693C326.906 86.6383 327.138 87.7273 327.602 88.6364C328.066 89.536 328.714 90.2273 329.548 90.7102C330.381 91.1837 331.356 91.4205 332.474 91.4205C333.222 91.4205 333.899 91.3163 334.505 91.108C335.111 90.8902 335.637 90.5729 336.082 90.1562C336.527 89.7396 336.863 89.2235 337.09 88.608L341.891 89.1477C341.588 90.4167 341.011 91.5246 340.158 92.4716C339.316 93.4091 338.236 94.1383 336.92 94.6591C335.603 95.1705 334.098 95.4261 332.403 95.4261Z" fill="white"/>
<g clip-path="url(#clip1_14_129)">
<path d="M58.7268 40.5149C62.8279 40.5343 66.321 41.7254 69.6615 43.2354C72.8203 44.6633 75.7974 44.8469 78.9683 43.3924C81.2744 42.3366 83.721 41.6142 86.1798 40.9498C94.1373 38.7996 104.554 42.3125 108.991 48.6183C109.655 49.5629 109.505 50.0099 108.613 50.6163C104.692 53.274 101.593 56.6806 100.486 61.3628C98.7931 68.5167 99.7548 75.2211 104.849 80.9109C106.613 82.8799 108.788 84.3682 111.15 85.5448C112.039 85.9869 112.157 86.4653 111.845 87.3496C109.965 92.6745 107.204 97.5186 103.878 102.058C102.473 103.977 101.077 105.9 99.3261 107.535C95.1717 111.411 90.4528 111.679 85.3658 109.763C83.5563 109.082 81.7395 108.398 79.8864 107.845C75.8967 106.654 72.0766 107.492 68.3074 108.927C65.977 109.814 63.6709 110.78 61.1226 110.973C57.5931 111.242 54.8583 109.628 52.4698 107.345C47.8988 102.976 44.5074 97.753 41.7483 92.1067C37.8313 84.0855 35.7359 75.6149 36.0266 66.6829C36.3028 58.2389 39.1733 50.8386 45.91 45.3494C49.7059 42.2569 54.1194 40.6116 58.7268 40.5149Z" fill="white"/>
<path d="M92.8268 20.5634C92.5797 26.8233 89.6922 31.7714 85.1212 35.852C82.2749 38.3937 78.9393 39.708 75.078 39.6718C74.0703 39.6621 73.7747 39.2779 73.7529 38.3091C73.5761 30.4667 78.6728 22.8587 86.3421 19.5801C87.8682 18.9278 89.4209 18.3721 91.0609 18.0991C92.6209 17.8382 92.805 18.0049 92.8268 19.597C92.8317 19.9184 92.8268 20.2421 92.8268 20.5634Z" fill="white"/>
</g>
</g>
<defs>
<clipPath id="clip0_14_129">
<rect width="400" height="129" fill="white"/>
</clipPath>
<clipPath id="clip1_14_129">
<rect width="76" height="93" fill="white" transform="translate(36 18)"/>
</clipPath>
</defs>
</svg>
