<svg width="100" height="100" viewBox="0 0 100 100" fill="none" xmlns="http://www.w3.org/2000/svg">
<path d="M20.8333 87.5C18.5417 87.5 16.5792 86.6833 14.9458 85.05C13.3125 83.4167 12.4972 81.4556 12.5 79.1667V27.0833C12.5 26.0417 12.6736 25.1042 13.0208 24.2708C13.3681 23.4375 13.8195 22.6389 14.375 21.875L20.2083 14.7917C20.7639 14.0278 21.4583 13.4542 22.2917 13.0708C23.125 12.6875 24.0278 12.4972 25 12.5H75C75.9722 12.5 76.875 12.6903 77.7083 13.0708C78.5417 13.4514 79.2361 14.025 79.7917 14.7917L85.625 21.875C86.1806 22.6389 86.6319 23.4375 86.9792 24.2708C87.3264 25.1042 87.5 26.0417 87.5 27.0833V79.1667C87.5 81.4583 86.6833 83.4208 85.05 85.0542C83.4167 86.6875 81.4556 87.5028 79.1667 87.5H20.8333ZM22.5 25H77.5L73.9583 20.8333H26.0417L22.5 25ZM50 75L66.6667 58.3333L60.8333 52.5L54.1667 59.1667V41.6667H45.8333V59.1667L39.1667 52.5L33.3333 58.3333L50 75Z" fill="#DBDBDB"/>
</svg>
