<svg width="100" height="100" viewBox="0 0 100 100" fill="none" xmlns="http://www.w3.org/2000/svg">
<g clip-path="url(#clip0_7_7)">
<path d="M71.0583 18.3167C74.1378 17.491 77.4163 17.8732 80.2233 19.3851C83.0302 20.897 85.1533 23.4243 86.1583 26.45L86.3667 27.1542L90.6792 43.2542C91.2231 45.2839 90.9801 47.4443 89.9988 49.3025C89.0176 51.1607 87.3705 52.5796 85.3875 53.275L84.7875 53.4583L74.9958 56.0833V62.5C74.9961 63.5212 75.3713 64.5067 76.0504 65.2695C76.7294 66.0322 77.6649 66.519 78.6792 66.6375L79.1667 66.6667H83.3333C83.3345 65.6047 83.7412 64.5832 84.4702 63.811C85.1992 63.0387 86.1956 62.574 87.2558 62.5118C88.316 62.4495 89.3599 62.7945 90.1743 63.4761C90.9887 64.1577 91.5121 65.1246 91.6375 66.1792L91.6667 66.6667V75C91.6655 76.062 91.2588 77.0835 90.5298 77.8557C89.8008 78.6279 88.8044 79.0926 87.7442 79.1549C86.684 79.2171 85.6401 78.8722 84.8257 78.1906C84.0113 77.5089 83.4879 76.5421 83.3625 75.4875L83.3333 75H79.1667C75.9783 75.0002 72.9104 73.782 70.5906 71.5946C68.2708 69.4073 66.8745 66.4162 66.6875 63.2333L66.6667 62.5V58.3167L39.5292 65.5833C37.8938 66.0215 36.1638 65.9512 34.5694 65.3818C32.975 64.8124 31.5919 63.7708 30.6042 62.3958L30.225 61.8167L17.6625 40.875C17.1891 40.0858 16.8958 39.2019 16.8035 38.2863C16.7113 37.3706 16.8224 36.4459 17.1289 35.5782C17.4354 34.7105 17.9297 33.9212 18.5765 33.2666C19.2234 32.612 20.0068 32.1084 20.8708 31.7917L21.4042 31.625L71.0583 18.3167ZM17.5083 44.4417L24.2792 55.9C24.8137 56.8495 24.955 57.9706 24.6728 59.023C24.3907 60.0755 23.7075 60.9755 22.7696 61.5302C21.8318 62.085 20.714 62.2503 19.6557 61.9907C18.5975 61.7312 17.683 61.0674 17.1083 60.1417L10.3375 48.6833C9.81597 47.7346 9.68419 46.6201 9.97007 45.5759C10.2559 44.5317 10.937 43.6398 11.8691 43.089C12.8011 42.5382 13.911 42.3718 14.9635 42.6251C16.0161 42.8783 16.9288 43.5272 17.5083 44.4417Z" fill="#DBDBDB"/>
</g>
<defs>
<clipPath id="clip0_7_7">
<rect width="100" height="100" fill="white"/>
</clipPath>
</defs>
</svg>
