<svg width="100" height="100" viewBox="0 0 100 100" fill="none" xmlns="http://www.w3.org/2000/svg">
<g clip-path="url(#clip0_7_11)">
<path d="M90.8205 1.36702C89.1603 -0.293141 86.5236 -0.468922 84.6486 0.956859L64.3361 16.5819C63.1837 17.4608 62.5002 18.8475 62.5002 20.2928V30.8592L45.7814 47.578C47.09 48.3983 48.3205 49.3944 49.4533 50.5272C50.5861 51.66 51.5822 52.91 52.4025 54.199L69.1212 37.4998H79.6877C81.1525 37.4998 82.5197 36.8162 83.3986 35.6639L99.0236 15.3514C100.469 13.4764 100.293 10.8397 98.6134 9.17952L90.8205 1.36702ZM23.7111 54.9608L1.83609 76.8358C-0.605316 79.2772 -0.605316 83.242 1.83609 85.6834L14.3361 98.1834C16.7775 100.625 20.7423 100.625 23.1837 98.1834L45.0587 76.3084C50.9572 70.41 50.9572 60.8592 45.0587 54.9608C39.1603 49.0623 29.6095 49.0623 23.7111 54.9608Z" fill="#DBDBDB"/>
</g>
<defs>
<clipPath id="clip0_7_11">
<rect width="100" height="100" fill="white"/>
</clipPath>
</defs>
</svg>
