<?xml version="1.0" encoding="UTF-8"?>
<svg id="_Слой_1" data-name="Слой 1" xmlns="http://www.w3.org/2000/svg" viewBox="0 0 50 50">
  <defs>
    <style>
      .cls-1 {
        fill: #fe5000;
        stroke-width: 0px;
      }
    </style>
  </defs>
  <path class="cls-1" d="m35.44,26.67c-6.96-.01-13.91-.01-20.87,0-3.86,0-6.91,2.97-6.92,6.74-.01,3.81,3.04,6.81,6.93,6.81,3.48.01,6.95,0,10.43,0s6.96.01,10.44,0c3.85,0,6.9-2.97,6.91-6.74.01-3.81-3.03-6.81-6.92-6.81Zm-.05,10.85H14.65c-2.46,0-4.3-1.77-4.29-4.09.01-2.3,1.85-4.05,4.27-4.05h20.74c2.46,0,4.3,1.76,4.29,4.09-.01,2.3-1.85,4.05-4.27,4.05Z"/>
  <path class="cls-1" d="m34.5,16.42c-.46.03-.79-.31-1.14-.64-4.37-4.09-10.98-4.45-15.72-.84-.43.33-.82.71-1.23,1.06-.64.57-1.47.56-1.99-.01-.52-.57-.48-1.32.11-1.94,5.48-5.71,15.43-5.71,20.93-.01.46.47.62,1,.35,1.6-.23.52-.66.79-1.31.78Z"/>
  <path class="cls-1" d="m24.98,15.16c2.51.05,4.69.88,6.52,2.59.71.67.8,1.48.26,2.08-.56.61-1.36.58-2.09-.08-2.73-2.49-6.59-2.49-9.31,0-.73.67-1.52.71-2.09.1-.55-.59-.47-1.42.24-2.08,1.82-1.71,4-2.54,6.47-2.6Z"/>
  <path class="cls-1" d="m28.27,22.6c-.01.7-.27,1.1-.74,1.35-.48.25-.96.19-1.4-.11-1.08-.74-1.15-.74-2.26,0-.6.4-1.31.32-1.78-.19-.48-.52-.47-1.29.01-1.84,1.43-1.61,4.42-1.61,5.81,0,.23.26.37.56.36.77Z"/>
  <path class="cls-1" d="m33.14,34.81c-.86,0-1.72,0-2.57,0-.88,0-1.47-.54-1.49-1.32-.02-.81.59-1.38,1.5-1.38,1.72,0,3.43,0,5.15,0,.88,0,1.47.54,1.49,1.32.02.81-.59,1.38-1.5,1.39-.86,0-1.72,0-2.57,0Z"/>
  <path class="cls-1" d="m14.41,34.8c-.75,0-1.37-.65-1.34-1.41.03-.73.64-1.31,1.37-1.31.75,0,1.37.65,1.34,1.4-.03.73-.64,1.32-1.37,1.31Z"/>
  <path class="cls-1" d="m21.21,33.48c-.02.75-.67,1.36-1.42,1.32-.72-.04-1.31-.66-1.29-1.39.02-.75.67-1.36,1.42-1.32.73.04,1.31.66,1.29,1.39Z"/>
</svg>