<?xml version="1.0" encoding="UTF-8"?>
<svg id="_Слой_1" data-name="Слой 1" xmlns="http://www.w3.org/2000/svg" viewBox="0 0 50 50">
  <defs>
    <style>
      .cls-1 {
        fill: #fe5000;
        stroke-width: 0px;
      }
    </style>
  </defs>
  <path class="cls-1" d="m19.21,40.2c-2.02,0-4.04-.08-6.05.02-2.14.11-3.5-1.77-2.4-3.71.48-.84.82-1.76,1.25-2.63.2-.4.2-.7-.04-1.11-5.35-9.1-.3-20.5,10.03-22.69,8.76-1.86,17.47,4.65,18.14,13.55.62,8.23-4.86,15.14-13.03,16.41-.79.12-1.61.14-2.41.15-1.83.02-3.66,0-5.48,0Zm-5.34-3.11c.22.02.34.04.46.04,3.66,0,7.31,0,10.97-.01.54,0,1.09-.06,1.63-.14,6.84-1.07,11.44-7.73,10-14.44-1.49-6.94-8.4-11.16-15.16-9.26-7.94,2.23-11.41,11.4-6.92,18.35.63.98.74,1.9.2,2.94-.41.8-.76,1.62-1.18,2.53Z"/>
  <path class="cls-1" d="m26.99,24.96c.02,1.08-.88,2.01-1.96,2.02-1.08.01-2-.9-2-1.98,0-1.05.87-1.95,1.93-1.98,1.08-.03,2.01.86,2.03,1.95Z"/>
  <path class="cls-1" d="m20.9,25.03c-.02,1.09-.93,1.98-2.02,1.94-1.07-.03-1.92-.92-1.92-1.98,0-1.09.9-1.99,1.99-1.98,1.09.01,1.96.92,1.94,2.02Z"/>
  <path class="cls-1" d="m33.06,24.96c.02,1.09-.87,2-1.96,2.01-1.06,0-1.95-.86-1.97-1.92-.03-1.1.83-2.02,1.92-2.05,1.08-.03,2,.86,2.02,1.95Z"/>
</svg>