<?xml version="1.0" encoding="UTF-8"?>
<svg id="_Слой_1" data-name="Слой 1" xmlns="http://www.w3.org/2000/svg" viewBox="0 0 50 50">
  <defs>
    <style>
      .cls-1 {
        fill: #fe5000;
        stroke-width: 0px;
      }
    </style>
  </defs>
  <path class="cls-1" d="m40.82,20.58c-.56-2.22-2.88-4.32-5.19-4.67-2.37-.34-4.76-.55-7.15-.66l2.89-2.89c.62-.62.62-1.62,0-2.24s-1.62-.62-2.24,0l-4.13,4.13-4.13-4.13c-.62-.62-1.62-.62-2.24,0s-.62,1.62,0,2.24l2.89,2.89c-2.39.11-4.79.32-7.17.66-2.29.35-4.61,2.45-5.18,4.69-1.13,4.75-1.13,9.56,0,14.33.56,2.22,2.88,4.32,5.19,4.67,3.53.5,7.08.75,10.63.75s7.1-.25,10.63-.75h.02c2.29-.35,4.61-2.45,5.18-4.69,1.13-4.75,1.13-9.57,0-14.33Zm-3.07,13.58c-.25.99-1.55,2.15-2.57,2.31-6.76.96-13.61.95-20.34,0-1.03-.16-2.33-1.33-2.58-2.3-1.01-4.26-1.01-8.59,0-12.83.25-.99,1.55-2.16,2.56-2.31,3.38-.48,6.79-.72,10.19-.72s6.79.24,10.16.72c1.03.16,2.33,1.33,2.58,2.3,1.01,4.26,1.01,8.59,0,12.83Z"/>
</svg>