<?xml version="1.0" encoding="UTF-8"?>
<svg id="_Слой_1" data-name="Слой 1" xmlns="http://www.w3.org/2000/svg" viewBox="0 0 50 50">
  <defs>
    <style>
      .cls-1 {
        fill: #fe5000;
        stroke-width: 0px;
      }
    </style>
  </defs>
  <path class="cls-1" d="m36.46,13.74c-.39-2.27-2.46-4.67-4.64-5.38-4.53-1.38-9.12-1.38-13.67,0-2.15.7-4.22,3.1-4.62,5.39-1.18,7.46-1.18,15.02,0,22.5.39,2.27,2.46,4.68,4.64,5.38,2.26.69,4.54,1.03,6.82,1.03s4.56-.34,6.82-1.03h.03c2.15-.7,4.22-3.11,4.62-5.4,1.18-7.46,1.18-15.02,0-22.5Zm-3.12,21.99c-.18,1.07-1.44,2.56-2.46,2.89-3.91,1.19-7.88,1.19-11.76,0-1.01-.33-2.28-1.81-2.46-2.87-1.12-7.13-1.12-14.36,0-21.47.19-1.08,1.45-2.57,2.44-2.89,1.96-.6,3.93-.9,5.91-.9s3.93.3,5.87.89c1.01.33,2.28,1.81,2.46,2.87,1.12,7.13,1.12,14.36,0,21.47Z"/>
  <path class="cls-1" d="m25,31.47c-1.37,0-2.47,1.11-2.47,2.47s1.11,2.47,2.47,2.47,2.47-1.11,2.47-2.47-1.11-2.47-2.47-2.47Z"/>
</svg>