<?xml version="1.0" encoding="UTF-8"?>
<svg id="_Слой_1" data-name="Слой 1" xmlns="http://www.w3.org/2000/svg" viewBox="0 0 13.92 20">
  <defs>
    <style>
      .cls-1 {
        fill: #fe5000;
      }
    </style>
  </defs>
  <path class="cls-1" d="m13.43,3.62c-.22-1.28-1.39-2.64-2.62-3.03-2.55-.78-5.14-.78-7.71,0C1.89.98.72,2.34.5,3.63c-.66,4.21-.66,8.47,0,12.69.22,1.28,1.39,2.64,2.62,3.03,1.28.39,2.56.58,3.85.58s2.57-.19,3.85-.58h.01c1.22-.4,2.38-1.76,2.6-3.05.66-4.21.66-8.47,0-12.69Zm-1.76,12.4c-.1.61-.81,1.44-1.39,1.63-2.21.67-4.44.67-6.64,0-.57-.18-1.29-1.02-1.39-1.62-.63-4.02-.63-8.1,0-12.11.1-.61.82-1.45,1.38-1.63,1.11-.34,2.22-.51,3.33-.51s2.22.17,3.31.5c.57.18,1.29,1.02,1.39,1.62.63,4.02.63,8.1,0,12.11Z"/>
  <path class="cls-1" d="m6.96,13.62c-.77,0-1.4.62-1.4,1.4s.62,1.4,1.4,1.4,1.4-.62,1.4-1.4-.62-1.4-1.4-1.4Z"/>
</svg>