<?xml version="1.0" encoding="UTF-8"?>
<svg id="_Слой_1" data-name="Слой 1" xmlns="http://www.w3.org/2000/svg" viewBox="0 0 50 50">
  <defs>
    <style>
      .cls-1 {
        fill: #fe5000;
        stroke-width: 0px;
      }
    </style>
  </defs>
  <path class="cls-1" d="m25,31.43c-1.63,0-2.95,1.32-2.95,2.95s1.32,2.95,2.95,2.95,2.95-1.32,2.95-2.95-1.32-2.95-2.95-2.95Z"/>
  <path class="cls-1" d="m14.88,26.05c-.62.62-.62,1.62,0,2.24.62.62,1.62.62,2.24,0,2.11-2.11,4.91-3.26,7.88-3.26s5.78,1.16,7.88,3.26c.31.31.71.46,1.12.46s.81-.15,1.12-.46c.62-.62.62-1.62,0-2.24-5.58-5.58-14.66-5.58-20.24,0Z"/>
  <path class="cls-1" d="m41.62,19.56c-4.44-4.44-10.34-6.88-16.62-6.88s-12.18,2.44-16.62,6.88c-.62.62-.62,1.62,0,2.24.31.31.71.46,1.12.46s.81-.15,1.12-.46c3.84-3.84,8.95-5.96,14.38-5.96s10.54,2.12,14.38,5.96c.62.62,1.62.62,2.24,0s.62-1.62,0-2.24Z"/>
</svg>