<?xml version="1.0" encoding="UTF-8"?>
<svg id="_Слой_1" data-name="Слой 1" xmlns="http://www.w3.org/2000/svg" viewBox="0 0 27.72 20">
  <defs>
    <style>
      .cls-1 {
        fill: #fe5000;
      }
    </style>
  </defs>
  <path class="cls-1" d="m13.86,15.22c-1.32,0-2.39,1.07-2.39,2.39s1.07,2.39,2.39,2.39,2.39-1.07,2.39-2.39-1.07-2.39-2.39-2.39Z"/>
  <path class="cls-1" d="m5.65,10.85c-.5.5-.5,1.31,0,1.82.5.5,1.31.5,1.82,0,1.71-1.71,3.98-2.65,6.4-2.65s4.69.94,6.4,2.65c.25.25.58.38.91.38s.66-.13.91-.38c.5-.5.5-1.31,0-1.82-4.53-4.53-11.9-4.53-16.42,0Z"/>
  <path class="cls-1" d="m27.34,5.58C23.74,1.98,18.95,0,13.86,0S3.98,1.98.38,5.58c-.5.5-.5,1.31,0,1.82.25.25.58.38.91.38s.66-.13.91-.38c3.12-3.12,7.26-4.83,11.67-4.83s8.55,1.72,11.67,4.83c.5.5,1.31.5,1.82,0s.5-1.31,0-1.82Z"/>
</svg>