<?xml version="1.0" encoding="UTF-8"?>
<svg id="_Слой_1" data-name="Слой 1" xmlns="http://www.w3.org/2000/svg" viewBox="0 0 20.88 20">
  <defs>
    <style>
      .cls-1 {
        fill: #fe5000;
      }
    </style>
  </defs>
  <path class="cls-1" d="m20.35,6.82c-.35-1.39-1.8-2.69-3.24-2.92-1.48-.21-2.97-.34-4.46-.41l1.81-1.81c.39-.39.39-1.01,0-1.4s-1.01-.39-1.4,0l-2.58,2.58L7.9.29c-.39-.39-1.01-.39-1.4,0s-.39,1.01,0,1.4l1.81,1.81c-1.49.07-2.99.2-4.47.41-1.43.22-2.88,1.53-3.23,2.93-.7,2.96-.7,5.97,0,8.94.35,1.39,1.8,2.69,3.24,2.92,2.2.31,4.41.47,6.63.47s4.43-.16,6.63-.47h.01c1.43-.22,2.88-1.53,3.23-2.93.7-2.96.7-5.97,0-8.94Zm-1.91,8.47c-.15.62-.96,1.34-1.61,1.44-4.21.6-8.49.6-12.69,0-.64-.1-1.46-.83-1.61-1.43-.63-2.66-.63-5.36,0-8,.16-.62.97-1.35,1.6-1.44,2.11-.3,4.23-.45,6.36-.45s4.24.15,6.34.45c.64.1,1.46.83,1.61,1.43.63,2.66.63,5.36,0,8Z"/>
</svg>