<?xml version="1.0" encoding="UTF-8"?>
<svg id="_Слой_1" data-name="Слой 1" xmlns="http://www.w3.org/2000/svg" viewBox="0 0 50 50">
  <defs>
    <style>
      .cls-1 {
        fill: #fe5000;
        stroke-width: 0px;
      }
    </style>
  </defs>
  <path class="cls-1" d="m24.98,21.8c1.16-1.19,2.26-2.47,3.49-3.59,5.36-4.84,12.75-1.49,14.35,4.2.99,3.5.18,6.63-2.44,9.15-2.43,2.34-5.37,3.13-8.66,2.15-1.79-.53-3.19-1.72-4.46-3.05-.78-.82-1.51-1.69-2.26-2.54-.98,1.05-1.9,2.12-2.9,3.12-1.24,1.24-2.68,2.21-4.41,2.64-4.82,1.2-10.02-2.32-10.8-7.31-.94-5.97,3.73-11.08,9.73-10.63,1.96.15,3.59,1.07,4.99,2.38,1.18,1.1,2.25,2.32,3.37,3.49Zm14.58,3.24c-.07-2.27-1.09-3.94-3.09-4.95-1.97-.99-3.86-.71-5.44.77-1.24,1.16-2.33,2.48-3.45,3.76-.13.14-.14.58-.02.71,1.14,1.3,2.24,2.65,3.5,3.82,1.56,1.46,3.43,1.73,5.37.76,2.01-1,3.04-2.66,3.13-4.89Zm-29.15-.03c.08,2.24,1.08,3.92,3.09,4.92,1.94.96,3.81.7,5.37-.75,1.26-1.17,2.37-2.52,3.51-3.82.12-.14.13-.57.01-.71-1.12-1.28-2.2-2.61-3.44-3.77-1.58-1.49-3.47-1.78-5.44-.8-2.01,1-3.02,2.67-3.11,4.92Z"/>
</svg>