<?xml version="1.0" encoding="UTF-8"?>
<svg id="_Слой_1" xmlns="http://www.w3.org/2000/svg" version="1.1" viewBox="0 0 33 48">
  <!-- Generator: Adobe Illustrator 29.1.0, SVG Export Plug-In . SVG Version: 2.1.0 Build 142)  -->
  <defs>
    <style>
      .st0 {
        fill: #fff;
      }

      .st1 {
        fill: #fe5000;
      }
    </style>
  </defs>
  <path class="st1" d="M2,46.9c-.7.5-1.6,0-1.6-.8V0h32.3v46.1c0,.8-.9,1.3-1.6.8l-13.4-9.6c-.7-.5-1.6-.5-2.3,0,0,0-13.4,9.6-13.4,9.6Z"/>
  <g>
    <path class="st0" d="M7.3,24.2h-2.1l-.5,1.4h-1l2-5.5h1.1l2,5.5h-1l-.5-1.4ZM5.5,23.4h1.5l-.4-1.2-.4-1.1-.4,1.1-.4,1.2h.1Z"/>
    <path class="st0" d="M10.8,23.2h-.5v2.4h-.9v-5.5h.9v2.2h.5l1.6-2.2h1.1l-1.9,2.6,2,2.9h-1.2s-1.6-2.4-1.6-2.4Z"/>
    <path class="st0" d="M14.3,20.1h.9v4.7h2.5v-4.7h.9v4.7h.6v2h-.9v-1.2h-4.1v-5.5h.1Z"/>
    <path class="st0" d="M23.5,21.3l-.3.7-1.9,3.6h-1.3v-5.5h.9v4.4l.4-.8,1.9-3.6h1.2v5.5h-.9s0-4.3,0-4.3Z"/>
    <path class="st0" d="M26.4,23.4c-.7-.3-1.1-.8-1.1-1.6s.6-1.7,2.1-1.7h1.9v5.5h-.9v-2.1h-1.1l-1.1,2.1h-1s1.2-2.2,1.2-2.2ZM27.4,22.7h.9v-1.8h-.9c-.8,0-1.1.3-1.1.9s.3.9,1.1.9Z"/>
  </g>
</svg>