<svg width="100" height="100" viewBox="0 0 100 100" fill="none" xmlns="http://www.w3.org/2000/svg">
<path d="M56.25 46.875H44.7917V34.1667L44.7959 33.3417L44.8042 33.1625C44.8396 32.9477 44.9415 32.7494 45.0954 32.5954C45.2494 32.4414 45.4477 32.3396 45.6625 32.3042C45.9958 32.2951 46.3291 32.291 46.6625 32.2917H56.25C58.1839 32.2917 60.0386 33.0599 61.406 34.4274C62.7735 35.7948 63.5417 37.6495 63.5417 39.5833C63.5417 41.5172 62.7735 43.3719 61.406 44.7393C60.0386 46.1068 58.1839 46.875 56.25 46.875Z" fill="#DBDBDB"/>
<path fill-rule="evenodd" clip-rule="evenodd" d="M91.6667 50C91.6667 73.0125 73.0125 91.6667 50 91.6667C26.9875 91.6667 8.33334 73.0125 8.33334 50C8.33334 26.9875 26.9875 8.33334 50 8.33334C73.0125 8.33334 91.6667 26.9875 91.6667 50ZM34.375 58.3333C34.375 57.5045 34.7043 56.7097 35.2903 56.1236C35.8764 55.5376 36.6712 55.2083 37.5 55.2083H38.5417V53.125H37.5C36.6712 53.125 35.8764 52.7958 35.2903 52.2097C34.7043 51.6237 34.375 50.8288 34.375 50C34.375 49.1712 34.7043 48.3764 35.2903 47.7903C35.8764 47.2043 36.6712 46.875 37.5 46.875H38.5417V34.0083C38.5417 33.4 38.5417 32.7708 38.6333 32.1917C38.8746 30.6717 39.5906 29.2671 40.6789 28.1789C41.7671 27.0906 43.1717 26.3746 44.6917 26.1333C45.2708 26.0417 45.9 26.0417 46.5042 26.0417H56.25C59.8415 26.0417 63.2859 27.4684 65.8254 30.0079C68.365 32.5475 69.7917 35.9919 69.7917 39.5833C69.7917 43.1748 68.365 46.6192 65.8254 49.1587C63.2859 51.6983 59.8415 53.125 56.25 53.125H44.7917V55.2083H50C50.8288 55.2083 51.6237 55.5376 52.2097 56.1236C52.7958 56.7097 53.125 57.5045 53.125 58.3333C53.125 59.1621 52.7958 59.957 52.2097 60.5431C51.6237 61.1291 50.8288 61.4583 50 61.4583H44.7917V70.8333C44.7917 71.6621 44.4624 72.457 43.8764 73.0431C43.2903 73.6291 42.4955 73.9583 41.6667 73.9583C40.8379 73.9583 40.043 73.6291 39.457 73.0431C38.8709 72.457 38.5417 71.6621 38.5417 70.8333V61.4583H37.5C36.6712 61.4583 35.8764 61.1291 35.2903 60.5431C34.7043 59.957 34.375 59.1621 34.375 58.3333Z" fill="#DBDBDB"/>
</svg>
