<svg width="100" height="100" viewBox="0 0 100 100" fill="none" xmlns="http://www.w3.org/2000/svg">
<path d="M77.7083 11.875L80.25 27.9583L94.875 35.4167L87.5 50L94.9166 64.5833L80.1666 72.0417L77.625 88.125L61.4166 85.5833L49.875 97.0833L38.2916 85.4167L22.2083 88.0833L19.625 71.875L5.08331 64.4583L12.5 49.875L5.12498 35.4167L19.75 27.875L22.2916 11.9167L38.4166 14.5833L50 2.875L61.5416 14.4167L77.7083 11.875ZM39.5833 29.1667C37.9257 29.1667 36.336 29.8251 35.1639 30.9972C33.9918 32.1693 33.3333 33.7591 33.3333 35.4167C33.3333 37.0743 33.9918 38.664 35.1639 39.8361C36.336 41.0082 37.9257 41.6667 39.5833 41.6667C41.2409 41.6667 42.8306 41.0082 44.0027 39.8361C45.1748 38.664 45.8333 37.0743 45.8333 35.4167C45.8333 33.7591 45.1748 32.1693 44.0027 30.9972C42.8306 29.8251 41.2409 29.1667 39.5833 29.1667ZM60.4166 58.3333C58.759 58.3333 57.1693 58.9918 55.9972 60.1639C54.8251 61.336 54.1666 62.9257 54.1666 64.5833C54.1666 66.2409 54.8251 67.8306 55.9972 69.0027C57.1693 70.1748 58.759 70.8333 60.4166 70.8333C62.0742 70.8333 63.664 70.1748 64.8361 69.0027C66.0082 67.8306 66.6666 66.2409 66.6666 64.5833C66.6666 62.9257 66.0082 61.336 64.8361 60.1639C63.664 58.9918 62.0742 58.3333 60.4166 58.3333ZM35.0416 70.8333L70.8333 35.0417L64.9583 29.1667L29.1666 64.9583L35.0416 70.8333Z" fill="#DBDBDB"/>
</svg>
