<?xml version="1.0" encoding="utf-8"?>
<!-- Generator: Adobe Illustrator 26.3.1, SVG Export Plug-In . SVG Version: 6.00 Build 0)  -->
<svg version="1.1" id="Слой_1" xmlns="http://www.w3.org/2000/svg" xmlns:xlink="http://www.w3.org/1999/xlink" x="0px" y="0px"
	 viewBox="0 0 193 68" style="enable-background:new 0 0 193 68;" xml:space="preserve">
<style type="text/css">
	.st0{fill:#FE5000;}
</style>
<path class="st0" d="M5.59,43.71c4.94,7.62,13.42,12.18,22.5,12.11c-2.58-3.61-5.95-6.58-9.85-8.68
	C14.34,45.04,10.01,43.86,5.59,43.71z M1.44,30.87c0.18,2.64,0.72,5.25,1.6,7.74c4.47,0.03,11.36,1.63,17.21,4.81
	s10.98,7.99,13.5,11.7c2.56-0.63,5.03-1.6,7.33-2.89v-31.4c-0.02-4.8-3.94-8.68-8.74-8.66c-1.68,0.01-3.32,0.5-4.72,1.42L1.44,30.87
	z M33.47,18.85c0.32,0.16,0.85,0.51,0.85,1.58v25.64c-2.64-3.4-6.42-6.39-10.79-8.75c-4.37-2.36-8.9-3.84-13.18-4.15l21.35-14.16
	C32.19,18.58,32.91,18.52,33.47,18.85z M172.89,18.52h12.73v-5.09h-12.73V18.52z M191.56,23.19v26.14h-5.94V28.69l-9.77,20.65h-8.91
	V23.19h5.94v20.65l9.77-20.65L191.56,23.19z M145.13,22.75c4.24,0,7.43,1.91,8.91,5.1v-4.65h6.28v26.14h-6.28v-4.67
	c-1.49,3.18-4.75,5.1-8.91,5.1c-6.37,0-11.5-5.77-11.5-13.5c0-7.89,5.14-13.5,11.5-13.5V22.75z M146.99,28.44
	c-4.33,0-7.1,3.35-7.1,7.81c0,4.71,3.01,7.81,7.1,7.81c4.29,0,7.04-3.35,7.04-7.81s-2.72-7.79-7.04-7.79V28.44z M123.52,28.94v20.37
	h-6.28V28.96h-8.07v-5.77h22.41v5.77L123.52,28.94z M101.15,40.81l5.26,2.89c-1.95,4.07-6.21,6.21-11.46,6.21
	c-7.55,0-12.99-5.64-12.99-13.62c0-7.59,5.09-13.58,12.99-13.58c7.64,0,12.52,5.65,12.52,13.58c0.01,0.71-0.01,1.42-0.08,2.12H88.17
	c0.63,3.52,2.93,5.98,7.04,5.98C97.72,44.47,100.05,43.07,101.15,40.81z M94.93,28.16c-3.69,0-6.07,2.12-6.75,5.56h13.07
	c-0.44-3.44-2.61-5.56-6.3-5.56H94.93z M72.38,23.19h-9.95l-8.02,26.14h6.15l6.66-22.32l6.66,22.32h6.54L72.38,23.19z"/>
</svg>
